<svg width="1990" height="101" viewBox="0 0 1990 101" fill="none" xmlns="http://www.w3.org/2000/svg">
<path d="M0.469922 52.2C0.469922 50.0667 1.16992 48.3 2.56992 46.9C4.03659 45.4333 5.83659 44.7 7.96992 44.7C9.56992 44.6333 10.9699 45.0667 12.1699 46C13.3699 46.8667 14.2366 48 14.7699 49.4C15.3699 50.7333 15.5699 52.1667 15.3699 53.7C15.1699 55.1667 14.4699 56.4333 13.2699 57.5C12.2033 58.7 10.9033 59.4 9.36992 59.6C7.90326 59.8 6.46992 59.6333 5.06992 59.1C3.73659 58.5 2.60326 57.6 1.66992 56.4C0.736589 55.2 0.336589 53.8 0.469922 52.2ZM186.158 77.8C179.158 84.8 170.592 88.3 160.458 88.3C150.325 88.3 141.725 84.8 134.658 77.8C127.658 70.7333 124.158 62.1333 124.158 52C124.158 41.8667 127.658 33.3 134.658 26.3C141.725 19.2333 150.325 15.7 160.458 15.7C170.592 15.7 179.158 19.2333 186.158 26.3C193.225 33.3 196.758 41.8667 196.758 52C196.758 62.1333 193.225 70.7333 186.158 77.8ZM142.758 70C147.625 74.7333 153.525 77.1 160.458 77.1C167.458 77.1 173.325 74.7333 178.058 70C181.792 66.2667 184.058 61.8333 184.858 56.7H135.958C136.892 61.9667 139.158 66.4 142.758 70ZM142.758 34.1C139.492 37.3667 137.358 41.2333 136.358 45.7H184.558C183.558 41.3 181.392 37.4333 178.058 34.1C173.325 29.3 167.458 26.9 160.458 26.9C153.458 26.9 147.558 29.3 142.758 34.1ZM248.744 17V28H229.044V87H217.544V28H197.744V17H248.744ZM257.248 17H268.748V87H257.248V17ZM324.236 17H335.736V87H324.236V56.7H294.236V87H282.736V17H294.236V45.7H324.236V17ZM349.729 17H361.229V87H349.729V17ZM442.217 17V87H430.717V37.1L409.417 72.3H408.017L386.717 37V87H375.217V17H387.617L408.717 52L429.917 17H442.217ZM508.674 76H516.174V100.4H504.674V87H462.174V100.4H450.674V76H457.174C461.24 70.7333 463.274 62.7 463.274 51.9V17H508.674V76ZM497.174 76V27.8H474.774V52.1C474.774 62.5 473.107 70.4667 469.774 76H497.174ZM537.693 76H568.693V87H526.193V17H568.193V28H537.693V46.2H565.693V57.1H537.693V76ZM605.021 17C611.621 17 617.121 19.2 621.521 23.6C625.987 28 628.221 33.4667 628.221 40C628.221 46.4667 625.987 51.9333 621.521 56.4C617.121 60.8 611.621 63 605.021 63H590.721V87H579.221V17H605.021ZM605.021 52.2C606.687 52.2 608.221 51.9 609.621 51.3C611.087 50.7 612.354 49.8667 613.421 48.8C614.487 47.6667 615.287 46.3667 615.821 44.9C616.421 43.4333 616.721 41.8 616.721 40C616.721 38.2 616.421 36.5667 615.821 35.1C615.287 33.6333 614.487 32.3667 613.421 31.3C612.354 30.1667 611.087 29.3 609.621 28.7C608.221 28.1 606.687 27.8 605.021 27.8H590.721V52.2H605.021ZM685.725 76H693.225V100.4H681.725V87H639.225V100.4H627.725V76H634.225C638.291 70.7333 640.325 62.7 640.325 51.9V17H685.725V76ZM674.225 76V27.8H651.825V52.1C651.825 62.5 650.158 70.4667 646.825 76H674.225ZM703.244 17H714.744V87H703.244V17ZM780.232 44C786.699 44 792.066 46.0333 796.332 50.1C800.599 54.1667 802.732 59.3 802.732 65.5C802.732 71.7 800.599 76.8333 796.332 80.9C792.066 84.9667 786.699 87 780.232 87H753.732V17H796.732V28H765.232V44H780.232ZM780.232 76.2C783.432 76.2 786.066 75.2333 788.132 73.3C790.199 71.3 791.232 68.7 791.232 65.5C791.232 62.3 790.199 59.7333 788.132 57.8C786.066 55.8 783.432 54.8 780.232 54.8H765.232V76.2H780.232ZM823.729 76H854.729V87H812.229V17H854.229V28H823.729V46.2H851.729V57.1H823.729V76ZM891.056 17C897.656 17 903.156 19.2 907.556 23.6C912.023 28 914.256 33.4667 914.256 40C914.256 46.4667 912.023 51.9333 907.556 56.4C903.156 60.8 897.656 63 891.056 63H876.756V87H865.256V17H891.056ZM891.056 52.2C892.723 52.2 894.256 51.9 895.656 51.3C897.123 50.7 898.389 49.8667 899.456 48.8C900.523 47.6667 901.323 46.3667 901.856 44.9C902.456 43.4333 902.756 41.8 902.756 40C902.756 38.2 902.456 36.5667 901.856 35.1C901.323 33.6333 900.523 32.3667 899.456 31.3C898.389 30.1667 897.123 29.3 895.656 28.7C894.256 28.1 892.723 27.8 891.056 27.8H876.756V52.2H891.056ZM960.613 17H972.213L950.513 69C945.18 81.7333 936.546 87.7333 924.613 87V76.3C928.613 76.7 931.813 76.1333 934.213 74.6C936.613 73 938.546 70.3 940.013 66.5L916.713 17H928.313L945.313 53.9L960.613 17ZM1078.5 52.2C1078.5 50.0667 1079.2 48.3 1080.6 46.9C1082.06 45.4333 1083.86 44.7 1086 44.7C1087.6 44.6333 1089 45.0667 1090.2 46C1091.4 46.8667 1092.26 48 1092.8 49.4C1093.4 50.7333 1093.6 52.1667 1093.4 53.7C1093.2 55.1667 1092.5 56.4333 1091.3 57.5C1090.23 58.7 1088.93 59.4 1087.4 59.6C1085.93 59.8 1084.5 59.6333 1083.1 59.1C1081.76 58.5 1080.63 57.6 1079.7 56.4C1078.76 55.2 1078.36 53.8 1078.5 52.2ZM1218.39 17H1228.39V87H1216.89V29.3L1202.79 33.3L1199.99 23.5L1218.39 17ZM1311.69 76H1322.59V100.4H1311.09V87H1306.99L1279.39 53.7V87H1267.89V17H1279.39V48.4L1305.99 17H1319.69L1291.39 51.1L1311.69 76ZM1378.53 87L1373.63 72.9H1343.83L1338.93 87H1326.43L1351.83 17H1365.63L1390.93 87H1378.53ZM1347.63 62.1H1369.83L1358.73 30.5L1347.63 62.1ZM1434.06 50.7C1441.19 54.1 1444.76 59.7333 1444.76 67.6C1444.76 73.7333 1442.43 78.7333 1437.76 82.6C1433.16 86.4 1427.13 88.3 1419.66 88.3C1406.79 88.3 1398.33 82.9 1394.26 72.1L1404.16 66.4C1406.23 73.8 1411.39 77.5 1419.66 77.5C1424.06 77.5 1427.43 76.5667 1429.76 74.7C1432.09 72.7667 1433.26 70.2 1433.26 67C1433.26 63.8 1432.13 61.2667 1429.86 59.4C1427.66 57.5333 1424.53 56.6 1420.46 56.6H1411.96V46.2H1418.16C1422.16 46.2 1425.23 45.3 1427.36 43.5C1429.56 41.7 1430.66 39.3 1430.66 36.3C1430.66 33.3 1429.66 30.9333 1427.66 29.2C1425.73 27.4 1422.86 26.5 1419.06 26.5C1412.13 26.5 1407.46 29.6667 1405.06 36L1395.26 30.3C1399.79 20.5667 1407.73 15.7 1419.06 15.7C1425.86 15.7 1431.43 17.5667 1435.76 21.3C1440.03 24.9667 1442.16 29.7667 1442.16 35.7C1442.16 42.3 1439.46 47.3 1434.06 50.7ZM1500.41 87L1495.51 72.9H1465.71L1460.81 87H1448.31L1473.71 17H1487.51L1512.81 87H1500.41ZM1469.51 62.1H1491.71L1480.61 30.5L1469.51 62.1ZM1561.83 17H1573.33V87H1561.83V56.7H1531.83V87H1520.33V17H1531.83V45.7H1561.83V17ZM1582.83 47.3H1590.33V17H1629.83V28H1601.83V47.3H1619.83V57.7H1601.83V87H1590.33V57.7H1582.83V47.3ZM1675.89 87L1670.99 72.9H1641.19L1636.29 87H1623.79L1649.19 17H1662.99L1688.29 87H1675.89ZM1644.99 62.1H1667.19L1656.09 30.5L1644.99 62.1ZM1773.32 76H1780.82V100.4H1769.32V87H1726.82V100.4H1715.32V76H1721.82C1725.89 70.7333 1727.92 62.7 1727.92 51.9V17H1773.32V76ZM1761.82 76V27.8H1739.42V52.1C1739.42 62.5 1737.76 70.4667 1734.42 76H1761.82ZM1802.34 76H1833.34V87H1790.84V17H1832.84V28H1802.34V46.2H1830.34V57.1H1802.34V76ZM1856.67 10V0.599998H1884.67V10H1856.67ZM1885.87 87V39.5L1852.87 87H1843.87V17H1855.37V64.5L1888.37 17H1897.37V87H1885.87ZM1911.35 17H1922.85V87H1911.35V17ZM1978.34 17H1989.84V87H1978.34V56.7H1948.34V87H1936.84V17H1948.34V45.7H1978.34V17Z" fill="#0A0A0A"/>
</svg>
