<svg width="3744" height="153" viewBox="0 0 3744 153" fill="none" xmlns="http://www.w3.org/2000/svg">
<path d="M0.789295 65.6081C0.789295 61.7833 2.0443 58.6159 4.55432 56.1059C7.18387 53.4763 10.411 52.1616 14.2358 52.1616C17.1044 52.042 19.6144 52.8189 21.7659 54.4923C23.9173 56.0461 25.4712 58.078 26.4273 60.5881C27.5031 62.9786 27.8616 65.5483 27.5031 68.2974C27.1445 70.9269 25.8895 73.1979 23.738 75.1103C21.8256 77.2618 19.4949 78.5168 16.7458 78.8753C14.1163 79.2339 11.5465 78.9351 9.0365 77.9789C6.64601 76.9032 4.61409 75.2896 2.94074 73.1381C1.26739 70.9867 0.550245 68.4767 0.789295 65.6081ZM292.648 62.9188C305.437 69.0145 311.831 79.1144 311.831 93.2183C311.831 104.215 307.648 113.179 299.281 120.111C291.034 126.924 280.217 130.331 266.83 130.331C243.762 130.331 228.582 120.649 221.291 101.286L239.041 91.0669C242.746 104.334 252.009 110.968 266.83 110.968C274.719 110.968 280.755 109.294 284.938 105.948C289.122 102.481 291.213 97.8798 291.213 92.1426C291.213 86.4054 289.181 81.8635 285.118 78.5168C281.173 75.1701 275.556 73.4967 268.265 73.4967H253.025V54.8509H264.141C271.312 54.8509 276.811 53.2373 280.635 50.0101C284.58 46.7829 286.552 42.4801 286.552 37.1014C286.552 31.7228 284.759 27.4797 281.173 24.3721C277.707 21.1449 272.568 19.5313 265.755 19.5313C253.324 19.5313 244.957 25.2087 240.654 36.5636L223.084 26.3442C231.212 8.89361 245.435 0.168302 265.755 0.168302C277.946 0.168302 287.926 3.515 295.696 10.2084C303.345 16.7822 307.17 25.388 307.17 36.0257C307.17 47.8587 302.329 56.823 292.648 62.9188ZM411.6 128L402.815 102.721H349.388L340.603 128H318.192L363.731 2.49904H388.472L433.832 128H411.6ZM356.201 83.3575H396.002L376.102 26.7028L356.201 83.3575ZM534.799 2.49904V128H514.181V82.2818H494.28L463.98 128H440.673L472.586 80.4889C464.219 77.9789 457.406 73.2577 452.147 66.3252C446.888 59.2733 444.259 51.4444 444.259 42.8386C444.259 31.6033 448.143 22.1011 455.912 14.332C463.801 6.44335 473.363 2.49904 484.598 2.49904H534.799ZM514.181 63.8152V21.862H484.598C481.849 21.862 479.279 22.3999 476.889 23.4756C474.498 24.5514 472.407 26.0454 470.614 27.9578C468.821 29.8702 467.387 32.1412 466.311 34.7707C465.355 37.2807 464.877 39.97 464.877 42.8386C464.877 45.7072 465.355 48.4563 466.311 51.0858C467.387 53.5959 468.821 55.8071 470.614 57.7195C472.407 59.6319 474.498 61.1259 476.889 62.2016C479.279 63.2774 481.849 63.8152 484.598 63.8152H514.181ZM633.774 62.9188C639.272 65.7874 643.575 69.7317 646.682 74.7517C649.79 79.7718 651.344 85.5687 651.344 92.1426C651.344 102.422 647.698 110.968 640.407 117.781C632.997 124.594 624.092 128 613.693 128H559.907V2.49904H609.749C620.028 2.49904 628.694 5.84573 635.746 12.5391C642.917 19.2325 646.503 27.4797 646.503 37.2807C646.503 48.038 642.26 56.584 633.774 62.9188ZM580.525 21.862V54.8509H609.749C614.291 54.8509 618.116 53.297 621.223 50.1894C624.331 46.9622 625.885 43.0179 625.885 38.3565C625.885 33.695 624.331 29.8104 621.223 26.7028C618.116 23.4756 614.291 21.862 609.749 21.862H580.525ZM613.693 108.637C618.474 108.637 622.478 106.964 625.706 103.617C629.052 100.27 630.726 96.0869 630.726 91.0669C630.726 86.0468 629.052 81.8635 625.706 78.5168C622.478 75.1701 618.474 73.4967 613.693 73.4967H580.525V108.637H613.693ZM763.999 128H739.437L689.953 68.2974V128H669.335V2.49904H689.953V58.7952L737.644 2.49904H762.206L711.468 63.6359L763.999 128ZM852.663 128V42.8386L793.499 128H777.363V2.49904H797.981V87.6604L857.146 2.49904H873.281V128H852.663ZM1035.5 2.49904V128H1014.88V22.2206H963.786V128H943.168V2.49904H1035.5ZM1106.91 2.49904C1118.74 2.49904 1128.6 6.44335 1136.49 14.332C1144.5 22.2206 1148.5 32.0216 1148.5 43.7351C1148.5 55.329 1144.5 65.13 1136.49 73.1381C1128.6 81.0268 1118.74 84.9711 1106.91 84.9711H1081.27V128H1060.65V2.49904H1106.91ZM1106.91 65.6081C1109.89 65.6081 1112.64 65.0702 1115.15 63.9945C1117.78 62.9188 1120.05 61.4247 1121.97 59.5123C1123.88 57.4804 1125.31 55.1497 1126.27 52.5201C1127.35 49.8906 1127.88 46.9622 1127.88 43.7351C1127.88 40.5079 1127.35 37.5795 1126.27 34.95C1125.31 32.3205 1123.88 30.0495 1121.97 28.1371C1120.05 26.1052 1117.78 24.5514 1115.15 23.4756C1112.64 22.3999 1109.89 21.862 1106.91 21.862H1081.27V65.6081H1106.91ZM1241.7 128V42.8386L1182.54 128H1166.4V2.49904H1187.02V87.6604L1246.18 2.49904H1262.32V128H1241.7ZM1361.79 2.49904H1382.41V128H1361.79V73.676H1308V128H1287.39V2.49904H1308V53.9544H1361.79V2.49904ZM1482.79 128V42.8386L1423.63 128H1407.49V2.49904H1428.11V87.6604L1487.28 2.49904H1503.41V128H1482.79ZM1648.6 2.49904V128H1627.98V38.5357L1589.79 101.645H1587.28L1549.1 38.3565V128H1528.48V2.49904H1550.71L1588.54 65.2495L1626.55 2.49904H1648.6ZM1755.38 128L1746.59 102.721H1693.17L1684.38 128H1661.97L1707.51 2.49904H1732.25L1777.61 128H1755.38ZM1699.98 83.3575H1739.78L1719.88 26.7028L1699.98 83.3575ZM1895.45 0.168302C1913.62 0.168302 1928.98 6.50311 1941.53 19.1727C1954.2 31.7228 1960.53 47.0818 1960.53 65.2495C1960.53 83.4173 1954.2 98.836 1941.53 111.506C1928.98 124.056 1913.62 130.331 1895.45 130.331C1878.72 130.331 1864.37 124.952 1852.42 114.195C1840.59 103.438 1833.66 89.8119 1831.62 73.3174H1811.72V128H1791.11V2.49904H1811.72V53.5959H1832.16C1834.79 38.1772 1841.96 25.4478 1853.68 15.4077C1865.39 5.24811 1879.31 0.168302 1895.45 0.168302ZM1895.45 20.2485C1882.78 20.2485 1872.2 24.4916 1863.72 32.9778C1855.23 41.4641 1850.99 52.2213 1850.99 65.2495C1850.99 78.0387 1855.23 88.7959 1863.72 97.5212C1872.44 106.007 1883.02 110.251 1895.45 110.251C1908 110.251 1918.52 106.007 1927 97.5212C1935.61 88.9154 1939.91 78.1582 1939.91 65.2495C1939.91 52.3408 1935.61 41.6434 1927 33.1571C1918.52 24.5514 1908 20.2485 1895.45 20.2485ZM2053.72 2.49904V22.2206H2018.4V128H1997.78V22.2206H1962.28V2.49904H2053.72ZM2121.13 130.331C2102.25 130.331 2086.59 124.115 2074.16 111.685C2061.73 99.0153 2055.51 83.5368 2055.51 65.2495C2055.51 46.8427 2061.73 31.424 2074.16 18.9934C2086.47 6.44335 2102.13 0.168302 2121.13 0.168302C2126.87 0.168302 2132.37 0.885452 2137.63 2.31975C2143 3.63452 2148.02 5.60668 2152.69 8.23622C2157.35 10.8658 2161.53 14.0332 2165.24 17.7384C2169.06 21.3242 2172.35 25.4478 2175.1 30.1093L2157.17 40.5079C2153.82 34.2926 2148.92 29.3921 2142.47 25.8064C2136.13 22.1011 2129.02 20.2485 2121.13 20.2485C2107.86 20.2485 2096.99 24.4916 2088.5 32.9778C2080.25 41.4641 2076.13 52.2213 2076.13 65.2495C2076.13 78.3972 2080.25 89.1545 2088.5 97.5212C2096.99 106.007 2107.86 110.251 2121.13 110.251C2129.02 110.251 2136.19 108.458 2142.65 104.872C2149.1 101.167 2153.94 96.2064 2157.17 89.9911L2175.1 100.211C2169.96 109.294 2162.49 116.645 2152.69 122.263C2143.12 127.641 2132.61 130.331 2121.13 130.331ZM2277.07 2.49904V128H2256.45V82.2818H2236.55L2206.25 128H2182.94L2214.86 80.4889C2206.49 77.9789 2199.68 73.2577 2194.42 66.3252C2189.16 59.2733 2186.53 51.4444 2186.53 42.8386C2186.53 31.6033 2190.41 22.1011 2198.18 14.332C2206.07 6.44335 2215.63 2.49904 2226.87 2.49904H2277.07ZM2256.45 63.8152V21.862H2226.87C2224.12 21.862 2221.55 22.3999 2219.16 23.4756C2216.77 24.5514 2214.68 26.0454 2212.89 27.9578C2211.09 29.8702 2209.66 32.1412 2208.58 34.7707C2207.63 37.2807 2207.15 39.97 2207.15 42.8386C2207.15 45.7072 2207.63 48.4563 2208.58 51.0858C2209.66 53.5959 2211.09 55.8071 2212.89 57.7195C2214.68 59.6319 2216.77 61.1259 2219.16 62.2016C2221.55 63.2774 2224.12 63.8152 2226.87 63.8152H2256.45ZM2441.13 108.278H2454.57V152.024H2433.95V128H2357.76V152.024H2337.14V108.278H2348.79C2356.08 98.836 2359.73 84.4332 2359.73 65.0702V2.49904H2441.13V108.278ZM2420.51 108.278V21.862H2380.35V65.4288C2380.35 84.0747 2377.36 98.3579 2371.38 108.278H2420.51ZM2575.67 111.506C2563.12 124.056 2547.76 130.331 2529.59 130.331C2511.42 130.331 2496.01 124.056 2483.34 111.506C2470.79 98.836 2464.51 83.4173 2464.51 65.2495C2464.51 47.0818 2470.79 31.7228 2483.34 19.1727C2496.01 6.50311 2511.42 0.168302 2529.59 0.168302C2547.76 0.168302 2563.12 6.50311 2575.67 19.1727C2588.34 31.7228 2594.67 47.0818 2594.67 65.2495C2594.67 83.4173 2588.34 98.836 2575.67 111.506ZM2497.86 97.5212C2506.58 106.007 2517.16 110.251 2529.59 110.251C2542.14 110.251 2552.66 106.007 2561.15 97.5212C2569.75 88.9154 2574.05 78.1582 2574.05 65.2495C2574.05 52.3408 2569.75 41.6434 2561.15 33.1571C2552.66 24.5514 2542.14 20.2485 2529.59 20.2485C2517.04 20.2485 2506.46 24.5514 2497.86 33.1571C2489.37 41.6434 2485.13 52.3408 2485.13 65.2495C2485.13 78.0387 2489.37 88.7959 2497.86 97.5212ZM2681.07 2.49904H2699V128H2678.38V24.5514L2653.1 31.7228L2648.08 14.1527L2681.07 2.49904ZM2874.71 111.506C2862.16 124.056 2846.8 130.331 2828.64 130.331C2810.47 130.331 2795.05 124.056 2782.38 111.506C2769.83 98.836 2763.56 83.4173 2763.56 65.2495C2763.56 47.0818 2769.83 31.7228 2782.38 19.1727C2795.05 6.50311 2810.47 0.168302 2828.64 0.168302C2846.8 0.168302 2862.16 6.50311 2874.71 19.1727C2887.38 31.7228 2893.72 47.0818 2893.72 65.2495C2893.72 83.4173 2887.38 98.836 2874.71 111.506ZM2796.9 97.5212C2805.63 106.007 2816.21 110.251 2828.64 110.251C2841.19 110.251 2851.71 106.007 2860.19 97.5212C2868.8 88.9154 2873.1 78.1582 2873.1 65.2495C2873.1 52.3408 2868.8 41.6434 2860.19 33.1571C2851.71 24.5514 2841.19 20.2485 2828.64 20.2485C2816.09 20.2485 2805.51 24.5514 2796.9 33.1571C2788.42 41.6434 2784.17 52.3408 2784.17 65.2495C2784.17 78.0387 2788.42 88.7959 2796.9 97.5212ZM3007.19 128H2982.63L2933.14 68.2974V128H2912.52V2.49904H2933.14V58.7952L2980.83 2.49904H3005.4L2954.66 63.6359L3007.19 128ZM3102.13 2.49904V22.2206H3066.81V128H3046.19V22.2206H3010.69V2.49904H3102.13ZM3197.67 2.49904V128H3177.05V82.2818H3157.15L3126.85 128H3103.54L3135.45 80.4889C3127.09 77.9789 3120.27 73.2577 3115.02 66.3252C3109.76 59.2733 3107.13 51.4444 3107.13 42.8386C3107.13 31.6033 3111.01 22.1011 3118.78 14.332C3126.67 6.44335 3136.23 2.49904 3147.47 2.49904H3197.67ZM3177.05 63.8152V21.862H3147.47C3144.72 21.862 3142.15 22.3999 3139.76 23.4756C3137.37 24.5514 3135.28 26.0454 3133.48 27.9578C3131.69 29.8702 3130.26 32.1412 3129.18 34.7707C3128.22 37.2807 3127.75 39.97 3127.75 42.8386C3127.75 45.7072 3128.22 48.4563 3129.18 51.0858C3130.26 53.5959 3131.69 55.8071 3133.48 57.7195C3135.28 59.6319 3137.37 61.1259 3139.76 62.2016C3142.15 63.2774 3144.72 63.8152 3147.47 63.8152H3177.05ZM3270.29 50.9066C3281.88 50.9066 3291.5 54.5521 3299.15 61.8431C3306.8 69.1341 3310.63 78.3375 3310.63 89.4533C3310.63 100.569 3306.8 109.772 3299.15 117.063C3291.5 124.354 3281.88 128 3270.29 128H3222.78V2.49904H3299.87V22.2206H3243.39V50.9066H3270.29ZM3270.29 108.637C3276.02 108.637 3280.75 106.904 3284.45 103.438C3288.16 99.8519 3290.01 95.1905 3290.01 89.4533C3290.01 83.7161 3288.16 79.1144 3284.45 75.6482C3280.75 72.0624 3276.02 70.2696 3270.29 70.2696H3243.39V108.637H3270.29ZM3373.91 2.49904C3385.74 2.49904 3395.6 6.44335 3403.49 14.332C3411.5 22.2206 3415.5 32.0216 3415.5 43.7351C3415.5 55.329 3411.5 65.13 3403.49 73.1381C3395.6 81.0268 3385.74 84.9711 3373.91 84.9711H3348.27V128H3327.65V2.49904H3373.91ZM3373.91 65.6081C3376.9 65.6081 3379.64 65.0702 3382.15 63.9945C3384.78 62.9188 3387.06 61.4247 3388.97 59.5123C3390.88 57.4804 3392.31 55.1497 3393.27 52.5201C3394.35 49.8906 3394.88 46.9622 3394.88 43.7351C3394.88 40.5079 3394.35 37.5795 3393.27 34.95C3392.31 32.3205 3390.88 30.0495 3388.97 28.1371C3387.06 26.1052 3384.78 24.5514 3382.15 23.4756C3379.64 22.3999 3376.9 21.862 3373.91 21.862H3348.27V65.6081H3373.91ZM3515.27 2.49904V128H3494.65V82.2818H3474.75L3444.45 128H3421.15L3453.06 80.4889C3444.69 77.9789 3437.88 73.2577 3432.62 66.3252C3427.36 59.2733 3424.73 51.4444 3424.73 42.8386C3424.73 31.6033 3428.62 22.1011 3436.38 14.332C3444.27 6.44335 3453.84 2.49904 3465.07 2.49904H3515.27ZM3494.65 63.8152V21.862H3465.07C3462.32 21.862 3459.75 22.3999 3457.36 23.4756C3454.97 24.5514 3452.88 26.0454 3451.09 27.9578C3449.29 29.8702 3447.86 32.1412 3446.78 34.7707C3445.83 37.2807 3445.35 39.97 3445.35 42.8386C3445.35 45.7072 3445.83 48.4563 3446.78 51.0858C3447.86 53.5959 3449.29 55.8071 3451.09 57.7195C3452.88 59.6319 3454.97 61.1259 3457.36 62.2016C3459.75 63.2774 3462.32 63.8152 3465.07 63.8152H3494.65ZM3716.62 65.6081C3716.62 61.7833 3717.87 58.6159 3720.38 56.1059C3723.01 53.4763 3726.24 52.1616 3730.07 52.1616C3732.93 52.042 3735.44 52.8189 3737.6 54.4923C3739.75 56.0461 3741.3 58.078 3742.26 60.5881C3743.33 62.9786 3743.69 65.5483 3743.33 68.2974C3742.97 70.9269 3741.72 73.1979 3739.57 75.1103C3737.66 77.2618 3735.32 78.5168 3732.58 78.8753C3729.95 79.2339 3727.38 78.9351 3724.87 77.9789C3722.48 76.9032 3720.44 75.2896 3718.77 73.1381C3717.1 70.9867 3716.38 68.4767 3716.62 65.6081Z" fill="black"/>
</svg>
