<svg width="360" height="333" viewBox="0 0 360 333" fill="none" xmlns="http://www.w3.org/2000/svg">
<path fill-rule="evenodd" clip-rule="evenodd" d="M23.4955 221.54C22.7273 221.647 22.0071 221.86 21.895 222.015C21.784 222.169 20.5266 222.53 19.1012 222.817C17.6767 223.103 15.388 223.862 14.0166 224.503C12.6442 225.145 11.3348 225.67 11.1057 225.67C10.8766 225.67 10.6886 225.85 10.6886 226.07C10.6886 226.29 10.4635 226.47 10.1884 226.47C9.91333 226.471 9.16509 226.921 8.52589 227.47C7.88669 228.021 7.23449 228.471 7.07744 228.471C6.57829 228.471 3.12621 232.116 2.87414 232.91C2.7411 233.329 2.47101 233.672 2.27495 233.672C0.954541 233.672 0.1763 242.483 1.26664 245.091C3.10121 249.482 12.6922 252.743 19.5533 251.31C23.0474 250.58 23.3075 247.669 19.9264 247.128C15.0359 246.346 10.9667 240.527 13.4414 237.854C13.6345 237.645 14.0026 236.816 14.2587 236.014C14.6888 234.668 15.0759 234.093 17.0495 231.872C23.2935 224.846 36.1055 225.179 38.6252 232.432C39.4885 234.917 38.6032 248.553 37.5319 249.271C37.3638 249.384 36.9997 250.648 36.7236 252.078C36.4476 253.508 36.0774 254.859 35.9024 255.079C35.7273 255.299 35.2682 256.92 34.8831 258.68C34.497 260.441 34.0578 261.971 33.9058 262.081C33.7547 262.191 33.3946 263.452 33.1055 264.882C32.8174 266.312 32.3393 268.083 32.0442 268.816C31.7501 269.549 31.288 271.71 31.0199 273.618C30.7508 275.525 30.3487 277.211 30.1266 277.363C29.4934 277.796 29.5584 293.777 30.1946 293.99C30.4697 294.082 30.6948 294.567 30.6948 295.068C30.6948 297.373 34.698 302.868 36.8717 303.545C37.3258 303.686 37.806 303.971 37.938 304.177C38.8923 305.659 51.8724 305.59 53.7019 304.093C53.922 303.913 54.7863 303.638 55.6225 303.482C56.4578 303.325 57.3581 302.987 57.6231 302.731C57.8872 302.474 58.9986 301.924 60.0919 301.511C61.1862 301.098 62.2666 300.609 62.4927 300.425C62.7197 300.241 63.8461 299.461 64.9964 298.69L67.0871 297.292L67.7693 298.392C68.7686 300.006 70.7902 302.094 71.3524 302.094C71.6215 302.094 71.9066 302.29 71.9866 302.53C72.3887 303.738 81.8046 305.053 83.6772 304.162C84.1354 303.943 85.5818 303.568 86.8902 303.327C88.1986 303.086 89.369 302.756 89.491 302.592C89.6131 302.428 90.7034 301.957 91.9138 301.544C93.1242 301.133 94.2045 300.663 94.3145 300.501C94.4246 300.339 95.3248 299.817 96.3152 299.341C98.6399 298.222 99.9623 297.449 100.27 297.028C101.442 295.426 102.727 295.69 103.51 297.692C104.064 299.106 104.431 299.635 105.871 301.093C107.201 302.441 107.714 302.769 109.346 303.323C110.211 303.617 111.091 304.001 111.3 304.176C111.814 304.606 117.82 304.583 118.087 304.15C118.204 303.961 119.07 303.7 120.012 303.57C121.863 303.314 126.725 301.063 126.725 300.462C126.725 300.259 126.957 300.093 127.24 300.093C127.523 300.093 128.371 299.579 129.124 298.95L130.495 297.806L131.954 299.372C134.855 302.483 145.232 303.156 146.811 300.336C147.009 299.982 147.436 299.693 147.759 299.693C148.083 299.693 148.553 299.243 148.804 298.692C149.055 298.142 149.403 297.692 149.576 297.692C149.75 297.692 150.305 296.792 150.81 295.692C151.756 293.628 154.333 292.604 154.333 294.291C154.333 294.621 154.513 294.891 154.733 294.891C154.953 294.891 155.133 295.419 155.133 296.066C155.133 303.067 167.226 304.654 170.727 298.112C171.412 296.833 171.817 297.135 172.038 299.093C172.741 305.335 178.667 301.669 180.592 293.802C180.742 293.191 180.991 292.601 181.146 292.491C181.302 292.381 181.855 291.39 182.376 290.29L183.323 288.289L183.422 290.49C183.565 293.67 184.355 298.092 184.779 298.092C184.979 298.092 185.143 298.343 185.143 298.651C185.143 301.431 194.033 303.218 195.023 300.637C195.138 300.338 195.476 300.093 195.775 300.093C196.073 300.093 196.533 299.692 196.795 299.201C197.058 298.71 197.515 298.067 197.81 297.772C198.105 297.476 198.347 296.978 198.347 296.663C198.347 296.349 198.527 296.092 198.747 296.092C198.967 296.092 199.147 296.334 199.147 296.631C199.147 298.451 201.727 301.469 203.604 301.844C205.826 302.289 209.478 302.109 211.39 301.459C213.326 300.802 213.576 300.645 215.669 298.768C217.059 297.521 217.464 297.829 217.525 300.179C217.584 302.452 225.155 302.924 225.155 300.654C225.155 300.345 225.335 300.093 225.555 300.093C225.775 300.093 225.955 299.361 225.955 298.466C225.955 297.571 226.141 296.491 226.37 296.066C226.788 295.284 227.956 294.982 227.956 295.655C227.956 296.033 230.752 298.953 232.331 300.225C236.446 303.537 245.373 302.589 249.657 298.384C250.349 297.705 250.459 297.758 252.341 299.67C253.42 300.766 254.766 301.779 255.334 301.921C255.901 302.064 256.365 302.341 256.365 302.537C256.365 302.734 258.075 302.894 260.166 302.894C262.257 302.894 263.967 302.758 263.967 302.591C263.967 302.425 264.732 302.054 265.668 301.765C267.653 301.155 270.217 299.536 271.404 298.142C272.285 297.108 273.17 297.25 273.17 298.426C273.17 301.292 279.869 303.497 280.968 300.993C281.185 300.498 281.5 300.093 281.668 300.093C281.836 300.093 281.973 298.584 281.973 296.741C281.973 292.934 282.071 292.78 284.968 292.05C286.059 291.775 287.408 291.314 287.964 291.025L288.975 290.5L289.416 293.813C289.942 297.761 290.251 298.41 292.427 300.134C295.008 302.178 302.225 302.297 304.693 300.336C306.023 299.279 307.892 297.382 308.307 296.667C308.738 295.924 308.757 295.928 308.769 296.779C308.804 299.364 307.862 311.926 307.62 312.097C307.465 312.207 307.014 313.827 306.618 315.698C306.223 317.568 305.694 319.226 305.444 319.382C304.399 320.031 304.882 324.638 306.04 325.05C308.407 325.892 314.687 320.798 317.064 316.108C318.182 313.9 318.184 313.885 318.184 305.695C318.184 294.463 317.229 266.601 316.785 264.882C316.097 262.222 315.957 251.678 316.61 251.678C316.926 251.678 317.184 251.832 317.184 252.02C317.184 252.208 319.434 252.687 322.185 253.086C324.936 253.484 327.187 253.935 327.187 254.086C327.187 254.237 329.122 254.596 331.488 254.884C333.854 255.172 335.88 255.541 335.99 255.705C336.329 256.209 348.337 256.966 351.35 256.672C358.996 255.928 361.519 251.685 357.025 247.127C355.168 245.243 351.055 242.075 350.467 242.075C350.268 242.075 349.47 241.644 348.693 241.117C347.916 240.589 346.586 239.914 345.737 239.616C344.887 239.318 343.961 238.856 343.679 238.59C343.397 238.323 342.542 237.988 341.778 237.845C341.015 237.702 340.391 237.444 340.391 237.273C340.391 237.102 339.176 236.638 337.69 236.242C336.205 235.846 334.899 235.403 334.789 235.258C334.544 234.935 328.346 233.672 327.002 233.672C326.47 233.672 325.922 233.492 325.786 233.272C325.478 232.773 315.717 232.732 315.41 233.228C315.289 233.423 314.694 233.706 314.087 233.856C311.532 234.489 308.781 239.805 308.781 244.112C308.781 246.035 308.725 246.15 307.881 245.951C307.386 245.834 304.91 245.516 302.379 245.244C299.848 244.972 297.598 244.621 297.378 244.463C297.158 244.305 294.547 243.958 291.576 243.689C288.605 243.422 285.814 243.049 285.374 242.86C282.967 241.828 257.622 241.118 254.044 241.983C249.123 243.173 247.225 247.66 248.783 254.421C249.979 259.603 252.464 260.147 256.365 256.079C257.842 254.539 259.171 253.278 259.317 253.278C259.464 253.278 260.254 252.84 261.075 252.305C261.896 251.769 263.737 251.117 265.168 250.855C266.598 250.594 268.202 250.176 268.731 249.928C270.044 249.312 300.06 249.323 300.836 249.94C301.135 250.177 302.878 250.47 304.711 250.589C306.543 250.709 308.164 250.928 308.312 251.075C308.918 251.681 308.873 289.097 308.264 290.53C307.315 292.765 304.513 295.62 302.751 296.148C299.024 297.264 298.366 295.4 299.129 285.889C299.792 277.629 298.826 275.685 294.055 275.685C291.288 275.685 290.471 276.738 289.938 280.996C289.445 284.93 289.753 284.581 286.245 285.171C284.666 285.437 282.762 285.776 282.016 285.926L280.658 286.197L280.949 283.242C281.11 281.616 281.432 280.057 281.665 279.777C283.61 277.431 277.202 273.587 274.501 275.479C273.204 276.388 271.468 287.751 272.188 290.619C272.448 291.654 269.335 295.193 267.449 296.009C264.001 297.498 260.114 295.859 258.167 292.094L257.58 290.96L259.749 290.278C260.941 289.903 262.013 289.347 262.13 289.042C262.246 288.738 262.573 288.489 262.856 288.489C263.427 288.489 265.568 286.367 265.568 285.799C265.568 285.601 265.962 285.016 266.443 284.5C268.847 281.92 267.751 275.822 264.617 274.336C260.219 272.248 250.363 277.783 250.363 282.34C250.363 282.605 250.193 282.881 249.984 282.955C249.428 283.151 248.694 288.289 248.795 291.29C248.923 295.117 247.595 296.492 243.772 296.492C241.618 296.492 237.559 294.004 237.559 292.684C237.559 292.505 237.292 292.072 236.967 291.724C236.641 291.375 235.934 290.583 235.395 289.963C234.857 289.344 233.908 288.697 233.287 288.527L232.157 288.219L233.811 286.554C235.552 284.799 235.814 284.683 236.724 285.258C237.2 285.559 237.181 285.723 236.603 286.302C235.516 287.388 235.882 289.779 237.203 290.24C240.761 291.483 243.761 287.334 243.761 281.17V277.652L242.361 276.425C240.924 275.165 236.329 274.869 235.608 275.989C235.47 276.204 234.943 276.508 234.437 276.666C232.801 277.176 227.082 283.477 226.246 285.688C226.12 286.019 226.004 284.263 225.987 281.787C225.969 279.292 225.789 277.286 225.582 277.286C225.377 277.286 225.091 276.916 224.948 276.463C224.24 274.231 220.407 274.677 218.768 277.181C217.885 278.531 217.741 279.347 217.368 285.123C216.967 291.34 216.913 291.613 215.768 293.126C213.703 295.857 210.374 297.715 209.194 296.794C207.521 295.488 207.511 295.421 207.753 286.689C208.001 277.703 208.041 277.93 205.986 276.495C202.251 273.884 199.35 275.537 198.981 280.487C198.592 285.695 197.962 289.885 197.547 290.023C197.327 290.097 197.146 290.398 197.146 290.693C197.146 291.624 195.115 293.691 194.199 293.691C192.173 293.691 191.765 292.427 191.493 285.288C191.354 281.657 191.219 278.638 191.193 278.579C190.059 276.032 186.138 274.978 183.778 276.586C181.53 278.116 177.54 284.088 177.54 285.922C177.54 286.234 177.36 286.489 177.14 286.489C176.92 286.489 176.726 286.804 176.708 287.189C176.689 287.63 176.528 287.481 176.275 286.788C175.6 284.94 171.939 285.205 171.939 287.102C171.939 287.388 171.73 287.692 171.475 287.777C171.219 287.862 170.881 289.025 170.723 290.362C170.551 291.822 170.138 293.135 169.687 293.651C167.052 296.673 166.129 297.068 164.536 295.859C163.635 295.174 163.442 282.853 164.327 282.557C166.264 281.911 163.977 277.114 161.495 276.618C160.857 276.49 160.335 276.229 160.335 276.035C160.335 275.47 158.328 275.634 157.713 276.25C157.402 276.561 156.949 276.881 156.705 276.962C156.114 277.159 155.133 281.034 155.133 283.175C155.133 284.117 154.953 284.888 154.733 284.888C154.513 284.888 154.333 285.767 154.333 286.842C154.333 288.342 154.17 288.853 153.633 289.044C153.248 289.179 152.708 289.395 152.433 289.524C152.084 289.686 151.932 289.342 151.932 288.394C151.932 283.127 141.496 284.194 140.488 289.565C140.03 292.007 141.036 293.231 144.03 293.871C145.451 294.175 145.418 294.701 143.888 296.132C141.904 297.983 138.728 296.638 138.728 293.945C138.728 293.391 138.548 292.827 138.328 292.691C137.855 292.399 137.782 288.889 138.248 288.889C138.424 288.889 138.806 286.774 139.096 284.188C139.388 281.602 139.79 279.28 139.991 279.028C140.625 278.234 139.187 275.867 137.756 275.35C134.674 274.235 131.182 275.503 131.139 277.753C131.132 278.119 130.956 278.479 130.749 278.553C130.165 278.759 129.532 283.476 129.523 287.689C129.511 292.678 128.364 294.768 124.933 296.044C124.708 296.128 124.212 296.468 123.831 296.799C122.552 297.913 119.127 297.642 117.35 296.286C114.033 293.756 111.249 283.288 113.893 283.288C114.044 283.288 114.501 282.522 114.908 281.587C115.316 280.652 115.764 279.797 115.903 279.687C116.273 279.394 118.19 275.325 118.777 273.585C119.055 272.759 119.403 272.084 119.55 272.084C119.698 272.084 120.053 271.229 120.339 270.184C120.624 269.138 121.188 267.656 121.591 266.889C121.993 266.121 122.323 265.256 122.323 264.966C122.323 264.676 122.663 263.683 123.079 262.759C123.496 261.836 124.065 260.046 124.344 258.78C124.623 257.515 124.975 256.479 125.125 256.479C125.276 256.479 125.726 254.904 126.126 252.978C126.527 251.053 126.979 249.387 127.131 249.277C128.113 248.57 129.617 233.375 128.806 232.345C128.602 232.085 128.311 231.351 128.158 230.713C127.791 229.18 125.659 226.963 124.255 226.655C123.638 226.519 123.029 226.242 122.904 226.039C122.778 225.836 121.347 225.67 119.722 225.67C118.098 225.67 116.666 225.836 116.54 226.039C116.415 226.242 115.8 226.521 115.174 226.658C112.659 227.21 107.119 233.024 107.119 235.111C107.119 235.366 106.86 235.79 106.544 236.052C106.228 236.314 105.847 237.101 105.698 237.802C105.549 238.501 105.105 239.794 104.711 240.674C104.316 241.555 103.784 243.445 103.528 244.876C103.273 246.306 102.905 247.775 102.711 248.138C102.517 248.502 102.154 250.753 101.904 253.139C101.653 255.527 101.239 257.84 100.983 258.28C100.654 258.845 100.494 263.594 100.443 274.424L100.37 289.767L98.7789 291.129C97.9036 291.877 96.9914 292.491 96.7513 292.491C96.5112 292.491 96.3152 292.644 96.3152 292.831C96.3152 293.847 87.6275 297.292 85.0617 297.292C83.2501 297.292 79.5099 295.671 79.5099 294.885C79.5099 294.7 79.2409 294.28 78.9128 293.951C78.3156 293.354 77.1092 289.368 77.1092 287.991C77.1092 287.335 78.1195 285.399 78.7297 284.888C78.9768 284.681 80.7113 281.109 82.4218 277.286C82.963 276.075 83.5342 274.5 83.6902 273.785C83.8473 273.07 84.1274 272.484 84.3144 272.484C84.5015 272.484 84.8756 271.494 85.1467 270.284C85.4178 269.073 85.7609 268.083 85.9089 268.083C86.057 268.083 86.5141 266.733 86.9252 265.082C87.3364 263.432 87.7885 262.081 87.9305 262.081C88.0716 262.081 88.5147 260.506 88.9149 258.58C89.315 256.654 89.7631 254.989 89.9112 254.879C90.1702 254.686 90.9135 251.529 92.1699 245.276C93.8014 237.159 92.8811 229.928 89.9392 227.753C87.6375 226.051 82.4379 224.999 81.2905 226.003C81.0814 226.185 80.1451 226.553 79.2098 226.819C78.2746 227.085 77.5093 227.475 77.5093 227.686C77.5093 227.898 77.2842 228.071 77.0092 228.071C76.392 228.072 73.5081 230.993 73.5081 231.619C73.5081 231.868 73.341 232.072 73.137 232.072C72.9329 232.072 72.5108 232.567 72.1977 233.172C71.8846 233.777 71.3434 234.813 70.9963 235.473C69.8239 237.7 68.3975 241.465 68.1154 243.075C67.9604 243.956 67.6963 244.856 67.5282 245.076C67.1451 245.574 66.4239 249.436 66.0688 252.878C65.9217 254.309 65.6556 255.665 65.4776 255.891C64.4563 257.191 64.0882 279.128 64.9244 288.889L65.1475 291.49L63.626 292.508C62.7887 293.067 61.4743 293.776 60.7041 294.085C59.9339 294.393 59.2136 294.761 59.1036 294.903C57.212 297.334 47.2609 296.7 45.1253 294.011C43.6928 292.209 43.6378 276.886 45.0632 276.886C45.2113 276.886 45.6614 274.905 46.0635 272.484C46.4667 270.064 46.9258 268.083 47.0839 268.083C47.2419 268.083 47.602 266.778 47.8821 265.182C48.1632 263.587 48.5423 262.095 48.7234 261.868C48.9054 261.641 49.3426 259.66 49.6947 257.467C50.0478 255.273 50.4959 253.186 50.691 252.829C51.3132 251.686 52.0124 242.403 51.7643 238.581C51.3832 232.736 47.0459 225.574 43.3187 224.639C42.7575 224.497 42.2984 224.249 42.2984 224.086C42.2984 223.737 38.5252 222.469 37.4839 222.469C37.0878 222.469 36.6946 222.264 36.6116 222.014C36.4516 221.535 26.1934 221.163 23.4955 221.54ZM87.1213 234.301C87.6175 235.803 86.6151 247.401 85.9139 248.277C85.7379 248.497 85.3698 250.117 85.0957 251.878C84.8216 253.639 84.4645 255.259 84.3024 255.479C84.1404 255.699 83.7012 257.409 83.3271 259.277C82.953 261.147 82.5129 262.857 82.3488 263.078C82.1838 263.301 81.7126 264.877 81.2995 266.583C80.8874 268.288 80.4262 269.683 80.2742 269.683C80.1231 269.683 79.8881 270.269 79.752 270.984C79.617 271.699 79.2208 272.824 78.8737 273.485C78.5266 274.145 77.9695 275.48 77.6374 276.453C77.3043 277.425 76.7551 278.498 76.416 278.836C75.7068 279.546 76.0359 264.243 76.7451 263.502C76.9451 263.293 77.1092 262.482 77.1092 261.701C77.1102 259.298 78.3466 249.502 78.6767 249.283C78.8487 249.17 79.1098 248.267 79.2589 247.277C79.66 244.609 81.9127 237.632 82.767 236.411C83.1761 235.827 83.5112 235.204 83.5112 235.026C83.5112 234.581 85.6038 232.904 86.181 232.886C86.4391 232.878 86.8622 233.515 87.1213 234.301ZM122.966 233.572C123.557 234.349 123.743 239.892 123.191 240.233C123.007 240.346 122.618 242.247 122.325 244.458C122.033 246.668 121.673 248.477 121.525 248.477C121.378 248.477 120.927 250.277 120.523 252.478C120.119 254.679 119.662 256.479 119.507 256.479C119.353 256.479 119.006 257.605 118.736 258.98C118.467 260.356 117.92 262.201 117.52 263.081C117.121 263.962 116.667 265.357 116.513 266.182C116.358 267.008 116.1 267.683 115.94 267.683C115.779 267.683 115.313 268.808 114.904 270.184C114.494 271.559 114.04 272.774 113.894 272.884C113.748 272.995 113.258 273.895 112.807 274.885L111.987 276.686L111.954 275.009C111.935 274.087 112.1 273.221 112.32 273.085C112.54 272.949 112.72 271.553 112.72 269.983C112.72 265.829 113.497 256.012 113.901 255.079C114.091 254.639 114.546 252.031 114.912 249.283C115.278 246.535 115.724 244.195 115.903 244.082C116.081 243.969 116.441 242.843 116.701 241.582C116.963 240.32 117.317 239.201 117.49 239.094C117.662 238.987 118.117 238.079 118.5 237.074C119.747 233.81 121.878 232.139 122.966 233.572ZM329.187 237.183C329.187 237.353 330.562 237.712 332.242 237.98C333.922 238.247 335.497 238.615 335.744 238.798C335.989 238.98 337 239.371 337.99 239.665C339.976 240.254 344.731 242.424 345.448 243.067C345.699 243.291 346.284 243.788 346.748 244.172C348.672 245.757 346.289 248.063 342.716 248.075C342.344 248.076 341.943 248.231 341.827 248.419C341.146 249.521 329.617 249.207 320.485 247.84L315.983 247.165V244.034C315.983 240.354 317.239 238.325 319.816 237.842C320.569 237.701 321.185 237.424 321.185 237.228C321.185 237.033 322.986 236.873 325.186 236.873C327.387 236.873 329.187 237.012 329.187 237.183ZM260.114 280.526C260.707 282.222 260.049 284.485 258.514 286.021C256.704 287.83 256.215 287.359 256.434 284.019C256.704 279.917 259.103 277.64 260.114 280.526ZM22.0301 309.513C21.656 310.489 22.0991 316.783 22.5833 317.369C22.8243 317.66 23.3395 318.697 23.7296 319.671C24.1187 320.646 24.6809 321.727 24.979 322.072C27.2357 324.693 29.5104 326.863 30.6878 327.522C31.454 327.951 32.3233 328.529 32.6204 328.805C33.5016 329.628 37.1768 331.225 38.8973 331.532C39.7776 331.69 40.6259 332.017 40.7829 332.261C41.19 332.891 57.8432 332.868 59.1426 332.235C59.6718 331.978 61.8084 331.472 63.8931 331.111C65.9767 330.749 67.8673 330.309 68.0944 330.131C68.3205 329.952 69.4968 329.58 70.7072 329.302C71.9176 329.024 73.0879 328.663 73.308 328.498C73.5281 328.333 74.7885 327.89 76.1089 327.511C77.4293 327.134 78.6897 326.68 78.9098 326.502C79.1298 326.325 80.1201 325.964 81.1104 325.701C82.1007 325.438 83.6762 324.876 84.6115 324.451C85.5468 324.027 86.8522 323.572 87.5124 323.44C88.1726 323.308 88.7128 323.066 88.7128 322.903C88.7128 322.739 89.8381 322.292 91.2136 321.91C92.589 321.527 93.8944 321.078 94.1145 320.913C94.3345 320.748 95.775 320.283 97.3155 319.881C98.8559 319.478 100.206 319.028 100.316 318.882C100.426 318.736 101.777 318.383 103.317 318.099C104.858 317.814 106.208 317.456 106.318 317.303C106.531 317.008 115.422 315.685 117.142 315.693C117.703 315.696 118.356 315.504 118.594 315.266C119.233 314.626 130.964 314.575 131.598 315.21C132.419 316.031 133.492 315.777 133.763 314.698C134.131 313.229 133.742 312.607 132.253 312.289C131.523 312.132 130.673 311.8 130.364 311.55C129.562 310.903 103.611 310.915 102.277 311.562C101.749 311.82 99.3361 312.254 96.9153 312.527C94.4946 312.801 92.424 313.141 92.3139 313.283C92.2039 313.425 89.9532 313.87 87.3124 314.271C84.6715 314.673 82.3308 315.137 82.1107 315.301C81.8907 315.465 79.5499 315.916 76.9091 316.303C74.2683 316.69 71.9276 317.137 71.7075 317.295C71.4874 317.453 69.5969 317.804 67.5062 318.075C65.4156 318.346 63.2729 318.777 62.7447 319.033C61.4053 319.683 43.5898 319.678 42.2604 319.028C41.7312 318.769 40.3078 318.34 39.0974 318.075C37.887 317.81 36.7166 317.467 36.4966 317.313C36.2765 317.158 35.4663 316.794 34.696 316.503C32.4793 315.666 29.2583 313.425 26.8816 311.067C24.5879 308.792 22.5562 308.14 22.0301 309.513Z" fill="#0A0A0A"/>
<path fill-rule="evenodd" clip-rule="evenodd" d="M77.5157 49.3583C77.5177 95.6957 77.7908 110.612 78.675 112.635C78.8671 113.075 79.2392 115.325 79.5023 117.635C79.7644 119.944 80.1205 122.015 80.2935 122.236C80.4666 122.457 80.9187 124.394 81.2989 126.539C81.678 128.685 82.1161 130.44 82.2722 130.44C82.4282 130.44 82.7873 131.566 83.0714 132.941C83.3555 134.317 83.9187 136.168 84.3228 137.057C84.7269 137.945 85.1881 139.205 85.3481 139.857C85.5082 140.51 85.7472 141.134 85.8803 141.244C86.0123 141.354 86.3684 142.164 86.6725 143.044C87.3167 144.914 91.1219 152.954 91.501 153.248C91.6431 153.358 92.0922 154.168 92.4983 155.048C92.9045 155.928 93.3656 156.739 93.5216 156.849C93.6787 156.959 94.1278 157.679 94.519 158.449C94.9101 159.219 95.3432 159.94 95.4803 160.05C95.6173 160.16 96.4476 161.321 97.3248 162.63C98.2021 163.94 99.1904 165.33 99.5205 165.719C99.8506 166.11 100.526 166.929 101.021 167.54C105.324 172.857 113.031 180.386 117.312 183.457C117.925 183.897 119.35 184.93 120.478 185.755C121.605 186.578 123.152 187.568 123.916 187.955C124.679 188.341 125.625 188.974 126.017 189.359C126.408 189.744 126.999 190.059 127.329 190.059C127.659 190.059 127.929 190.224 127.929 190.426C127.929 190.628 128.74 191.102 129.73 191.48C130.72 191.859 131.53 192.289 131.53 192.435C131.53 192.582 132.431 193.026 133.531 193.421C134.631 193.817 135.532 194.283 135.532 194.457C135.532 194.631 136.021 194.896 136.619 195.047C137.217 195.197 138.63 195.757 139.759 196.29C141.706 197.211 143.534 197.559 143.534 197.008C143.534 196.686 141.903 195.261 141.535 195.261C141.383 195.261 140.734 194.81 140.095 194.26C139.456 193.711 138.714 193.261 138.447 193.26C138.18 193.26 137.767 192.9 137.532 192.46C137.297 192.02 136.9 191.66 136.651 191.66C136.402 191.66 135.697 191.2 135.085 190.64C132.477 188.254 126.459 182.141 125.641 181.045C125.151 180.391 124.206 179.156 123.54 178.3C122.873 177.445 122.328 176.603 122.328 176.429C122.328 176.255 122.063 175.847 121.738 175.522C121.024 174.808 118.856 171.074 118.27 169.553C118.038 168.947 117.705 168.452 117.531 168.452C117.357 168.452 117.098 167.828 116.955 167.065C116.812 166.302 116.467 165.446 116.188 165.164C115.909 164.882 115.356 163.481 114.959 162.05C114.563 160.62 114.102 159.269 113.935 159.049C113.767 158.829 113.403 157.389 113.125 155.848C112.847 154.308 112.481 152.867 112.311 152.647C110.803 150.688 110.812 124.976 112.321 123.038C112.493 122.818 112.855 121.288 113.125 119.637C113.395 117.987 113.758 116.456 113.931 116.236C114.104 116.016 114.552 114.605 114.927 113.099C115.303 111.594 115.861 109.883 116.166 109.298C116.471 108.713 116.722 108.087 116.724 107.908C116.725 107.728 117.176 106.598 117.726 105.396C118.276 104.192 118.726 103.116 118.726 103.003C118.726 102.891 119.267 101.644 119.927 100.231C120.587 98.8187 121.127 97.4913 121.127 97.2802C121.127 97.0691 121.277 96.8371 121.46 96.763C121.644 96.69 122.489 95.3696 123.338 93.8291C124.186 92.2886 124.995 90.9382 125.135 90.8282C125.275 90.7182 125.736 90.0029 126.159 89.2397C127.009 87.7072 126.964 87.7732 128.931 85.2265C129.696 84.2361 130.324 83.2719 130.326 83.0838C130.328 82.8947 130.78 82.3866 131.33 81.9544C131.881 81.5213 132.331 81.0131 132.331 80.8241C132.331 79.9678 145.092 67.2209 145.949 67.2209C146.137 67.2209 146.525 66.9028 146.812 66.5136C147.1 66.1245 147.876 65.4613 148.536 65.0402C149.196 64.6181 149.95 64.0809 150.212 63.8468C150.474 63.6117 151.348 62.9696 152.154 62.4194C152.959 61.8692 153.92 61.149 154.291 60.8189C154.66 60.4888 155.497 59.9486 156.15 59.6185C157.479 58.9473 159.735 57.5279 160.921 56.6176C161.351 56.2875 161.902 56.0174 162.146 56.0174C162.39 56.0174 162.938 55.7003 163.365 55.3122C163.791 54.924 164.906 54.2668 165.841 53.8507C166.776 53.4346 167.542 52.9634 167.542 52.8024C167.542 52.6413 167.902 52.4153 168.342 52.3002C169.437 52.0141 169.348 51.2979 167.942 49.0792C167.282 48.0389 166.741 47.1106 166.741 47.0186C166.741 46.8285 165.048 44.2337 164.128 43.0134C160.482 38.1789 159.034 36.4113 158.716 36.4113C158.509 36.4113 158.339 36.1752 158.339 35.8861C158.339 34.9939 151.141 27.8747 147.008 24.6787C146.388 24.1995 145.501 23.4023 145.036 22.9071C144.571 22.412 143.961 22.0068 143.682 22.0068C143.402 22.0068 143.03 21.7678 142.854 21.4757C142.678 21.1836 141.904 20.5984 141.133 20.1753C140.363 19.7521 139.589 19.181 139.413 18.9059C139.237 18.6308 138.854 18.4057 138.562 18.4057C138.27 18.4057 137.803 18.1326 137.526 17.7985C137.249 17.4644 136.372 16.8882 135.577 16.5181C134.781 16.149 134.041 15.7289 133.931 15.5848C133.821 15.4408 133.011 14.9907 132.131 14.5845C131.25 14.1784 130.44 13.7363 130.33 13.6022C130.003 13.2021 124.987 10.8834 123.813 10.5893C123.216 10.4392 122.728 10.1752 122.728 10.0031C122.728 9.83105 122.239 9.56697 121.641 9.41692C121.044 9.26687 119.829 8.81574 118.941 8.41461C118.052 8.01249 116.516 7.45431 115.525 7.17322C114.535 6.89214 113.545 6.53503 113.325 6.38098C113.105 6.22593 111.484 5.76979 109.724 5.36666C107.963 4.96354 106.433 4.5184 106.323 4.37636C106.213 4.23431 104.862 3.89821 103.322 3.63012C101.781 3.36204 100.161 2.97992 99.7206 2.78186C98.7633 2.35073 90.5177 1.20037 88.3831 1.20037C87.5548 1.20037 86.7055 1.04232 86.4965 0.848263C86.2874 0.655203 84.1807 0.404126 81.815 0.291091L77.5137 0.0860252L77.5157 49.3583ZM277.776 0.286088C276.455 0.360111 275.105 0.535165 274.775 0.676209C274.445 0.816252 272.042 1.25339 269.435 1.64851C266.828 2.04263 264.488 2.52678 264.234 2.72385C263.98 2.91991 262.641 3.31403 261.259 3.59812C259.877 3.88321 258.665 4.24732 258.566 4.40737C258.467 4.56742 257.121 5.02656 255.577 5.42768C254.033 5.82781 252.768 6.30195 252.768 6.47901C252.768 6.65706 252.507 6.80211 252.187 6.80211C251.511 6.80211 245.062 9.57597 244.766 9.9941C244.656 10.1491 243.71 10.5993 242.665 10.9944C241.62 11.3895 240.764 11.8487 240.764 12.0147C240.764 12.1808 240.269 12.4409 239.664 12.5919C239.059 12.742 237.767 13.3922 236.794 14.0354C235.822 14.6786 234.787 15.2047 234.493 15.2047C234.201 15.2047 233.962 15.3828 233.962 15.5998C233.962 15.8169 233.336 16.256 232.571 16.5751C231.807 16.8952 230.782 17.5274 230.295 17.9816C229.808 18.4347 229.174 18.8058 228.886 18.8058C228.597 18.8058 228.361 18.9479 228.361 19.1209C228.361 19.442 224.155 22.407 223.7 22.407C223.563 22.407 223.035 22.8121 222.527 23.3072C220.575 25.2098 220.077 25.6079 219.647 25.6079C219.403 25.6079 218.968 25.937 218.681 26.3392C218.392 26.7413 217.841 27.2445 217.454 27.4565C215.424 28.5729 202.953 40.6676 198.73 45.6142C197.321 47.2647 195.759 49.0632 195.259 49.6114C194.759 50.1596 194.35 50.7357 194.35 50.8938C194.35 51.0508 193.887 51.683 193.322 52.2982C192.756 52.9134 192.036 53.7017 191.721 54.0508C191.406 54.3989 191.149 54.885 191.149 55.1311C191.149 55.3762 190.91 55.7213 190.618 55.8974C190.326 56.0734 189.741 56.8476 189.317 57.6179C188.894 58.3881 188.323 59.1624 188.048 59.3384C187.773 59.5145 187.548 59.8176 187.548 60.0136C187.548 60.2087 186.76 61.5201 185.795 62.9285C184.831 64.336 183.92 65.8764 183.769 66.3516C183.618 66.8278 183.272 67.4419 182.999 67.719C182.727 67.9951 181.802 69.6616 180.943 71.4222C180.085 73.1827 179.268 74.7132 179.13 74.8232C178.992 74.9333 178.534 76.0136 178.113 77.224C177.691 78.4343 177.136 79.6477 176.878 79.9208C176.62 80.1939 176.288 80.9711 176.139 81.6483C175.99 82.3256 175.619 83.3619 175.313 83.9511C175.008 84.5392 174.546 85.9677 174.287 87.125C174.028 88.2814 173.665 89.2277 173.479 89.2277C173.294 89.2277 173.143 89.6538 173.143 90.176C173.143 91.2163 174.44 91.6154 177.845 91.6244C178.78 91.6264 179.545 91.8085 179.545 92.0286C179.545 92.2486 179.963 92.4287 180.476 92.4287C181.978 92.4287 188.93 93.6941 189.148 94.0072C189.258 94.1652 190.474 94.5293 191.849 94.8164C193.225 95.1035 194.35 95.4876 194.35 95.6687C194.35 95.8508 195.06 96.1899 195.927 96.4239C198.66 97.1592 201.923 98.9687 206.301 102.175C210.048 104.919 215.557 111.245 215.557 112.802C215.557 113.009 215.789 113.416 216.072 113.706C216.632 114.28 218.166 119.029 218.829 122.238C219.331 124.668 219.07 134.974 218.487 135.712C218.257 136.004 217.747 137.638 217.354 139.343C216.96 141.049 216.522 142.444 216.38 142.444C216.239 142.444 215.786 143.435 215.374 144.645C214.963 145.855 214.475 146.846 214.291 146.846C214.107 146.846 213.956 147.039 213.956 147.274C213.956 147.509 213.416 148.487 212.756 149.446C212.095 150.406 211.555 151.389 211.555 151.632C211.555 151.874 211.285 152.176 210.955 152.302C210.625 152.429 210.355 152.723 210.355 152.955C210.355 153.766 204.025 160.587 202.107 161.843C201.483 162.252 200.788 162.734 200.562 162.913C198.405 164.626 197.569 165.178 196.451 165.626C195.735 165.914 195.15 166.293 195.15 166.468C195.15 166.644 194.205 167.099 193.05 167.479C191.894 167.859 190.858 168.307 190.748 168.475C190.637 168.643 189.376 169.015 187.947 169.304C186.517 169.591 185.219 170.012 185.062 170.24C184.668 170.81 173.045 170.791 172.304 170.219C171.996 169.98 170.668 169.554 169.354 169.271C168.041 168.987 166.6 168.523 166.153 168.238C165.706 167.954 164.576 167.497 163.64 167.223C162.705 166.949 161.94 166.596 161.94 166.437C161.94 166.279 161.412 165.93 160.767 165.662C156.694 163.976 156.713 163.002 160.84 161.889C162.325 161.489 163.54 161.001 163.54 160.806C163.54 160.61 163.855 160.441 164.241 160.431C164.626 160.42 165.508 160.105 166.201 159.731C166.894 159.355 168.149 158.695 168.989 158.262C169.828 157.83 170.826 157.2 171.204 156.862C171.583 156.525 172.378 155.888 172.972 155.448C173.974 154.706 175.772 152.968 177.527 151.047C177.929 150.607 178.379 149.842 178.528 149.346C178.677 148.851 178.952 148.446 179.14 148.446C179.327 148.446 179.778 147.501 180.142 146.345C180.506 145.19 181.015 143.813 181.275 143.283C181.901 142.006 181.845 133.942 181.208 133.729C180.954 133.645 180.746 133.233 180.746 132.816C180.746 131.825 179.532 128.787 178.866 128.111C178.579 127.821 178.345 127.447 178.345 127.28C178.345 126.781 172.331 120.838 171.827 120.838C171.69 120.838 170.947 120.408 170.173 119.884C169.401 119.36 168.088 118.803 167.256 118.647C166.424 118.491 165.614 118.155 165.457 117.9C165.059 117.256 153.218 117.263 151.9 117.908C151.371 118.168 149.991 118.677 148.836 119.041C147.68 119.404 146.735 119.849 146.735 120.03C146.735 120.211 146.195 120.547 145.535 120.777C144.875 121.008 144.334 121.386 144.334 121.617C144.334 121.849 144.088 122.038 143.788 122.038C142.305 122.038 136.17 129.603 135.109 132.741C134.867 133.456 134.528 134.042 134.355 134.042C134.182 134.042 133.805 135.167 133.518 136.542C133.231 137.918 132.801 139.171 132.564 139.328C131.966 139.723 131.972 153.323 132.571 154.087C132.813 154.395 133.243 155.773 133.526 157.149C133.809 158.524 134.176 159.65 134.341 159.65C134.507 159.65 134.757 160.261 134.897 161.007C135.213 162.687 139.413 170.935 140.176 171.373C140.482 171.549 140.733 171.952 140.733 172.269C140.733 172.588 141.093 173.072 141.534 173.347C141.974 173.622 142.334 174.052 142.334 174.302C142.334 174.789 149.912 182.457 150.393 182.457C150.55 182.457 150.917 182.682 151.208 182.957C152.299 183.989 154.588 185.528 156.021 186.192C156.837 186.57 157.598 187.03 157.712 187.214C157.825 187.398 158.733 187.776 159.729 188.055C160.725 188.334 161.54 188.691 161.54 188.848C161.54 189.004 162.305 189.352 163.24 189.621C164.176 189.89 165.481 190.349 166.141 190.642C166.801 190.934 168.692 191.388 170.343 191.649C171.993 191.911 173.647 192.284 174.016 192.479C176.286 193.672 198.324 193.678 200.689 192.486C201.054 192.302 203.333 191.844 205.753 191.466C208.174 191.089 210.245 190.649 210.355 190.487C210.465 190.326 211.725 189.953 213.156 189.659C214.586 189.365 215.847 189.008 215.957 188.867C216.067 188.726 217.372 188.285 218.858 187.889C220.343 187.493 221.558 187.032 221.558 186.864C221.558 186.696 222.13 186.444 222.829 186.304C223.527 186.164 225.238 185.512 226.631 184.853C228.023 184.195 229.343 183.657 229.562 183.657C229.781 183.657 229.961 183.517 229.961 183.345C229.961 183.173 230.861 182.684 231.962 182.257C233.062 181.829 233.962 181.353 233.962 181.199C233.962 181.044 234.592 180.71 235.363 180.456C236.133 180.202 236.763 179.855 236.763 179.686C236.763 179.516 237.483 179.053 238.364 178.655C239.244 178.258 239.966 177.826 239.969 177.694C239.971 177.563 240.681 177.116 241.547 176.701C242.413 176.287 243.215 175.702 243.33 175.4C243.446 175.1 243.809 174.854 244.138 174.854C244.469 174.854 244.931 174.494 245.166 174.054C245.401 173.614 245.848 173.254 246.157 173.254C246.467 173.254 246.956 172.925 247.243 172.523C247.531 172.12 248.064 171.625 248.426 171.422C249.328 170.917 255.002 165.769 256.528 164.07C257.211 163.311 258.13 162.308 258.57 161.843C259.01 161.378 260.09 160.111 260.971 159.027C261.851 157.944 262.886 156.696 263.271 156.253C264.819 154.474 265.091 154.106 265.817 152.802C266.232 152.057 266.696 151.353 266.848 151.238C267.256 150.93 268.884 148.425 269.572 147.046C269.902 146.385 270.271 145.755 270.392 145.645C270.898 145.183 275.575 135.311 275.575 134.705C275.575 134.34 275.733 134.042 275.926 134.042C276.353 134.042 277.38 130.412 278.473 125.039C278.921 122.838 279.439 120.677 279.625 120.237C280.042 119.25 280.661 114.016 281.022 108.434C281.172 106.123 281.434 104.14 281.605 104.027C282.047 103.736 282.192 83.755 282.077 38.9121L281.977 0L281.077 0.0760238C280.582 0.117037 279.096 0.212065 277.776 0.286088Z" fill="#EC4424"/>
</svg>
