<svg width="147" height="49" viewBox="0 0 147 49" fill="none" xmlns="http://www.w3.org/2000/svg">
<path d="M9.40034 0.301739L7.1489 16.3171H2.8085L5.05994 0.301739H9.40034ZM13.9961 0.301739L13.5319 3.62087H0L0.464215 0.301739H13.9961ZM18.7171 16.5957C17.3245 16.5957 16.2026 16.4332 15.3516 16.1082C14.516 15.7678 13.9435 15.2417 13.634 14.5299C13.34 13.8026 13.2781 12.8278 13.4483 11.6054C13.5876 10.6769 13.7965 9.90324 14.075 9.28429C14.369 8.64986 14.7558 8.14696 15.2355 7.77559C15.7307 7.38875 16.3264 7.11796 17.0227 6.96322C17.7345 6.79301 18.5701 6.7079 19.5295 6.7079H24.4038L24.0092 9.40034H19.7848C19.3206 9.40034 18.9338 9.46998 18.6243 9.60924C18.3148 9.73303 18.075 9.93419 17.9048 10.2127C17.75 10.4912 17.634 10.8549 17.5566 11.3036C17.4792 11.9226 17.5721 12.3791 17.8351 12.6731C18.0982 12.9671 18.6011 13.1141 19.3438 13.1141C19.9782 13.1141 20.4811 12.9748 20.8525 12.6963C21.2394 12.4177 21.5488 11.9303 21.7809 11.234C22.0131 10.5377 22.2142 9.54735 22.3844 8.26302C22.5392 7.2108 22.6088 6.38295 22.5933 5.77947C22.5778 5.17599 22.4618 4.72725 22.2452 4.43325C22.0285 4.12377 21.6958 3.93035 21.2471 3.85298C20.8138 3.76014 20.249 3.71372 19.5527 3.71372C19.1968 3.71372 18.7945 3.72145 18.3458 3.73693C17.9125 3.73693 17.4483 3.76014 16.9531 3.80656C16.4734 3.83751 15.9705 3.89166 15.4444 3.96903L15.4908 0.765954C15.8467 0.642163 16.3032 0.526109 16.8603 0.417792C17.4173 0.294002 18.0363 0.193423 18.7171 0.116054C19.398 0.0386847 20.1175 0 20.8757 0C22.779 0 24.2103 0.286264 25.1697 0.858795C26.1446 1.41585 26.7558 2.29786 27.0034 3.50482C27.2664 4.71178 27.2587 6.27463 26.9802 8.19339C26.7635 9.84909 26.4386 11.2263 26.0053 12.3249C25.572 13.4081 25.0227 14.2669 24.3573 14.9013C23.692 15.5202 22.8951 15.9612 21.9666 16.2243C21.0382 16.4719 19.955 16.5957 18.7171 16.5957ZM43.1752 0.301739L37.8831 12.1392C37.4808 13.0831 37.0708 13.88 36.653 14.5299C36.2352 15.1643 35.7555 15.6518 35.2139 15.9922C34.6878 16.3326 34.0379 16.5338 33.2642 16.5957C32.8 16.6421 32.2739 16.6498 31.6859 16.6189C31.1133 16.5879 30.5563 16.5338 30.0147 16.4564C29.4886 16.3945 29.0398 16.3249 28.6685 16.2475L29.3184 13.2765C29.9683 13.3075 30.5176 13.323 30.9663 13.323C31.4151 13.323 31.7864 13.292 32.0804 13.2301C32.3899 13.1527 32.6452 13.0367 32.8464 12.882C33.063 12.7117 33.2487 12.4796 33.4035 12.1856L34.2855 10.3752L35.0282 8.79686L38.6027 0.301739H43.1752ZM33.357 0.301739L34.3551 8.30944C34.3706 8.5725 34.4944 8.70402 34.7265 8.70402H35.6085L36.3744 11.8143H32.8C32.1346 11.8143 31.6394 11.6286 31.3145 11.2572C31.005 10.8704 30.8116 10.3829 30.7342 9.79493L28.9934 0.301739H33.357ZM47.9659 0.232105C48.8788 0.232105 49.7995 0.239844 50.7279 0.255318C51.6564 0.255318 52.5539 0.278527 53.4204 0.324949C54.2869 0.355896 55.0761 0.417793 55.7879 0.510636L55.3005 3.59766H49.5442C49.1264 3.59766 48.8169 3.67503 48.6158 3.82977C48.4301 3.98451 48.3063 4.26304 48.2444 4.66536L47.2463 11.9767C47.1844 12.3172 47.2309 12.5802 47.3856 12.7659C47.5403 12.9361 47.8111 13.0212 48.198 13.0212H53.931L53.8382 16.1547C53.1109 16.2475 52.314 16.3017 51.4475 16.3171C50.5964 16.3481 49.7299 16.3636 48.8479 16.3636C47.9659 16.379 47.1148 16.3868 46.2947 16.3868C45.0104 16.3868 44.0665 16.0077 43.463 15.2494C42.875 14.4912 42.6583 13.5086 42.8131 12.3017L44.0433 3.59766C44.1825 2.56092 44.5848 1.7408 45.2502 1.13733C45.9311 0.533847 46.8363 0.232105 47.9659 0.232105ZM44.0665 6.59185H54.0239L53.6525 9.53961H43.6023L44.0665 6.59185ZM71.0839 0.301739L70.7125 3.22629H65.4205C64.9098 3.22629 64.5385 3.32687 64.3064 3.52803C64.0743 3.71372 63.8963 4.06961 63.7725 4.59572C63.6332 5.24562 63.4862 5.88779 63.3315 6.52221C63.1922 7.14117 63.0452 7.74465 62.8905 8.33265C62.7512 8.92066 62.5965 9.48545 62.4263 10.027C62.2716 10.5686 62.1013 11.0793 61.9156 11.5589C61.7454 12.0232 61.5598 12.4564 61.3586 12.8587C60.8325 13.9264 60.2445 14.7465 59.5946 15.3191C58.9602 15.8761 58.2561 16.2243 57.4824 16.3636C56.7087 16.5183 55.8731 16.526 54.9756 16.3868L54.8132 12.998C55.1226 12.9361 55.4321 12.8742 55.7416 12.8123C56.0511 12.7504 56.3451 12.6189 56.6236 12.4177C56.9176 12.2011 57.1884 11.8452 57.436 11.35C57.5907 11.0715 57.7377 10.7466 57.877 10.3752C58.0317 9.98835 58.1787 9.56282 58.318 9.09861C58.4572 8.63439 58.5965 8.12376 58.7358 7.5667C58.8905 7.00964 59.0453 6.39842 59.2 5.73305C59.3702 5.0522 59.5327 4.32493 59.6874 3.55124C59.935 2.46807 60.3915 1.6557 61.0569 1.11411C61.7377 0.572529 62.6661 0.301739 63.8421 0.301739H71.0839ZM71.4088 0.301739L69.1574 16.3171H64.817L67.0684 0.301739H71.4088ZM80.6297 0.0232103C81.4189 0.0232103 82.0997 0.0464197 82.6722 0.0928411C83.2448 0.139263 83.7709 0.208896 84.2506 0.301739C84.7302 0.379108 85.2099 0.487425 85.6896 0.62669L85.179 3.80656C84.6374 3.77561 84.1345 3.76014 83.6703 3.76014C83.2061 3.74466 82.7187 3.73693 82.208 3.73693C81.7129 3.72145 81.1171 3.71372 80.4208 3.71372C79.9256 3.71372 79.5078 3.77561 79.1674 3.8994C78.827 4.00772 78.533 4.22435 78.2854 4.5493C78.0533 4.87425 77.8521 5.35394 77.6819 5.98837C77.5117 6.62279 77.3647 7.45064 77.2409 8.47192C77.0707 9.64793 76.9933 10.5609 77.0088 11.2108C77.0398 11.8452 77.2022 12.2862 77.4962 12.5338C77.8057 12.7814 78.2931 12.9052 78.9585 12.9052C80.0881 12.9052 81.0243 12.8897 81.767 12.8587C82.5098 12.8123 83.2448 12.7582 83.972 12.6963L84.1345 15.8993C83.3144 16.1469 82.502 16.3249 81.6974 16.4332C80.8927 16.5415 79.9179 16.5957 78.7728 16.5957C77.0552 16.5957 75.7013 16.3249 74.7109 15.7833C73.7206 15.2417 73.063 14.352 72.738 13.1141C72.4131 11.8762 72.3976 10.2205 72.6916 8.14696C72.9237 6.55316 73.2255 5.23015 73.5968 4.17793C73.9682 3.12571 74.4556 2.29786 75.0591 1.69438C75.6626 1.0909 76.4208 0.665373 77.3338 0.417792C78.2467 0.154737 79.3454 0.0232103 80.6297 0.0232103ZM92.5073 0.301739L90.2558 16.3171H85.9386L88.1901 0.301739H92.5073ZM100.108 0.116054C101.501 0.116054 102.615 0.247581 103.451 0.510636C104.286 0.758217 104.859 1.19922 105.168 1.83365C105.493 2.4526 105.571 3.32687 105.4 4.45646C105.246 5.5551 104.928 6.39069 104.449 6.96322C103.984 7.52028 103.226 7.84523 102.174 7.93807L102.128 8.07733C103.257 8.18565 104.023 8.61892 104.425 9.37713C104.843 10.1354 104.959 11.1721 104.774 12.4874C104.634 13.5551 104.348 14.3829 103.915 14.9709C103.482 15.5435 102.863 15.9458 102.058 16.1779C101.269 16.3945 100.255 16.5028 99.0173 16.5028C98.027 16.5028 97.1528 16.4719 96.3945 16.41C95.6518 16.3481 94.9632 16.2552 94.3288 16.1315C93.7098 16.0077 93.0909 15.8607 92.4719 15.6905L92.9594 12.8587C93.9806 13.0135 94.9168 13.1295 95.7679 13.2069C96.6189 13.2843 97.3926 13.323 98.0889 13.323C98.615 13.323 99.0328 13.2611 99.3423 13.1373C99.6672 13.0135 99.9148 12.8046 100.085 12.5106C100.255 12.2166 100.379 11.8143 100.456 11.3036C100.518 10.7775 100.511 10.3829 100.433 10.1199C100.371 9.85682 100.209 9.67887 99.9458 9.58603C99.6982 9.47771 99.3423 9.42355 98.8781 9.42355H95.559L95.9071 6.61506H99.0173C99.5125 6.61506 99.8916 6.5609 100.155 6.45258C100.433 6.32879 100.634 6.13537 100.758 5.87231C100.897 5.59378 100.998 5.21468 101.06 4.73499C101.122 4.33267 101.106 4.03093 101.013 3.82977C100.936 3.61314 100.774 3.47387 100.526 3.41198C100.278 3.33461 99.938 3.29592 99.5048 3.29592C98.9322 3.29592 98.3907 3.3114 97.88 3.34234C97.3849 3.35782 96.8974 3.3965 96.4177 3.4584C95.9381 3.50482 95.4042 3.55898 94.8162 3.62087L94.6537 0.603477C95.4893 0.433265 96.3249 0.309474 97.1605 0.232105C98.0116 0.154736 98.9941 0.116054 100.108 0.116054ZM122.627 0.301739L120.376 16.3171H116.036L117.892 3.22629H116.593C116.175 3.22629 115.834 3.32687 115.571 3.52803C115.308 3.72919 115.115 4.09282 114.991 4.61893C114.682 5.96516 114.341 7.28817 113.97 8.58797C113.598 9.88777 113.15 11.1566 112.624 12.3945C112.098 13.617 111.424 14.8084 110.604 15.969L105.823 16.2243C106.751 14.7388 107.517 13.3075 108.121 11.9303C108.74 10.5531 109.258 9.18371 109.676 7.82202C110.109 6.44485 110.511 5.02899 110.883 3.57445C111.161 2.47581 111.656 1.6557 112.368 1.11411C113.08 0.572529 114.001 0.301739 115.13 0.301739H122.627ZM108.956 16.1547L108.121 19.822H104.917L105.428 16.1547H108.956ZM122.929 13.3926L122.558 16.3171H105.405L105.776 13.3926H122.929ZM122.581 16.1547L122.07 19.822H118.891L119.076 16.1547H122.581ZM130.928 0.301739L128.676 16.3171H124.359L126.611 0.301739H130.928ZM147 0.301739C146.52 1.4468 146.103 2.43713 145.747 3.27271C145.406 4.09283 145.081 4.78915 144.772 5.36168C144.478 5.91873 144.161 6.37521 143.82 6.73111C143.48 7.07153 143.077 7.34233 142.613 7.54349C142.149 7.72917 141.584 7.8607 140.919 7.93807L140.896 8.07733C141.515 8.17018 142.025 8.30944 142.427 8.49513C142.83 8.66534 143.162 8.93613 143.426 9.3075C143.689 9.6634 143.905 10.1431 144.075 10.7466C144.261 11.3346 144.431 12.0851 144.586 12.998C144.741 13.911 144.919 15.0173 145.12 16.3171H140.663C140.462 14.8626 140.292 13.6866 140.153 12.7891C140.014 11.8762 139.859 11.1798 139.689 10.7001C139.518 10.2205 139.279 9.89551 138.969 9.7253C138.66 9.53961 138.226 9.44677 137.669 9.44677L137.925 6.54543C138.466 6.54543 138.923 6.44484 139.294 6.24369C139.665 6.04253 140.006 5.70984 140.315 5.24562C140.64 4.76594 140.973 4.12377 141.313 3.31913C141.654 2.51449 142.041 1.5087 142.474 0.301739H147ZM138.226 0.301739L137.6 4.64214C137.522 5.23015 137.391 5.84137 137.205 6.47579C137.019 7.09475 136.787 7.62859 136.509 8.07733C136.633 8.5106 136.718 8.99802 136.764 9.53961C136.81 10.0657 136.795 10.5686 136.718 11.0483L135.975 16.3171H131.634L133.886 0.301739H138.226ZM139.015 6.54543L138.621 9.44677H135.859L136.253 6.54543H139.015ZM15.087 28.6704L8.12375 39.7651H3.96903L0.116054 28.6704H4.47967L6.01158 34.1714C6.10442 34.6046 6.15858 34.9992 6.17405 35.3551C6.205 35.711 6.22821 36.0592 6.24368 36.3996L6.54543 36.3764C6.60732 36.0669 6.7079 35.7187 6.84716 35.3319C6.98643 34.945 7.14117 34.5659 7.31138 34.1946L10.4448 28.6704H15.087ZM8.54155 37.2352L7.49706 44.6858H3.13345L4.15472 37.2352H8.54155ZM11.6286 37.8154L11.3036 40.299H0.580267L0.905218 37.8154H11.6286ZM22.6698 28.4383C24.2172 28.4383 25.4396 28.6085 26.3371 28.9489C27.2346 29.2739 27.838 29.8387 28.1475 30.6433C28.4725 31.448 28.5344 32.5543 28.3332 33.9625C28.1475 35.3396 27.8303 36.3996 27.3816 37.1423C26.9328 37.8851 26.2907 38.4034 25.4551 38.6974C24.6195 38.976 23.5208 39.1152 22.1592 39.1152C21.4164 39.1152 20.6814 39.0766 19.9541 38.9992C19.2423 38.9218 18.5692 38.829 17.9348 38.7207C17.3158 38.5969 16.7897 38.4731 16.3565 38.3493C15.9232 38.21 15.6215 38.0862 15.4513 37.9779L15.5905 35.9818C16.5963 35.9818 17.6331 35.9818 18.7008 35.9818C19.7684 35.9818 20.8052 35.9818 21.811 35.9818C22.3062 35.9818 22.7007 35.9276 22.9947 35.8193C23.2887 35.711 23.5131 35.4944 23.6678 35.1694C23.8226 34.829 23.9464 34.3184 24.0392 33.6375C24.1166 33.1114 24.1243 32.7013 24.0624 32.4073C24.0005 32.1133 23.8458 31.9044 23.5982 31.7806C23.3661 31.6569 23.0179 31.595 22.5537 31.595C21.0373 31.595 19.7452 31.6104 18.6775 31.6414C17.6098 31.6569 16.8903 31.6801 16.5189 31.711L16.4493 28.6704C17.1147 28.593 17.7336 28.5389 18.3062 28.5079C18.8942 28.477 19.5286 28.4615 20.2094 28.4615C20.8903 28.446 21.7104 28.4383 22.6698 28.4383ZM20.7897 28.6704L18.5383 44.6858H14.1979L16.4493 28.6704H20.7897ZM44.462 28.6704L42.2105 44.6858H37.8237L40.0751 28.6704H44.462ZM35.4562 28.6704L33.2047 44.6858H28.8411L31.0926 28.6704H35.4562ZM40.3537 28.6704L39.9591 31.595H34.8527L35.2705 28.6704H40.3537ZM55.6054 28.6704C55.9458 28.6704 56.2476 28.7865 56.5106 29.0186C56.7892 29.2507 56.9516 29.5369 56.9981 29.8774L59.2727 44.6858H54.9091L53.7486 33.5911C53.7176 33.2971 53.6944 33.0108 53.6789 32.7323C53.6789 32.4538 53.6789 32.1752 53.6789 31.8967H53.029C52.9671 32.1288 52.8975 32.3919 52.8201 32.6859C52.7428 32.9799 52.6422 33.2661 52.5184 33.5447L48.1316 44.6858H43.6055L50.0581 29.7149C50.1818 29.3745 50.3753 29.1192 50.6383 28.9489C50.9169 28.7633 51.2341 28.6704 51.59 28.6704H55.6054ZM56.5803 37.6994L56.2089 40.9257H47.853L48.2476 37.6994H56.5803ZM75.2426 41.7613L74.848 44.6858H69.6256L70.0434 41.7613H75.2426ZM74.8712 44.5233L74.3374 48.1906H71.2039L71.4128 44.5233H74.8712ZM75.9157 28.6704C75.436 29.8155 75.0182 30.8058 74.6623 31.6414C74.3219 32.4615 73.997 33.1578 73.6875 33.7303C73.3935 34.2874 73.0685 34.7439 72.7126 35.0998C72.3722 35.4402 71.9699 35.711 71.5057 35.9122C71.0569 36.0978 70.4999 36.2294 69.8345 36.3067L69.8113 36.446C70.4302 36.5388 70.9409 36.6781 71.3432 36.8638C71.7455 37.034 72.0782 37.3048 72.3413 37.6762C72.6043 38.0321 72.821 38.5118 72.9912 39.1152C73.1614 39.7032 73.3239 40.4537 73.4786 41.3667C73.6488 42.2796 73.8345 43.386 74.0356 44.6858H69.5792C69.378 43.2313 69.2078 42.0553 69.0686 41.1578C68.9293 40.2448 68.7746 39.5485 68.6043 39.0688C68.4341 38.5891 68.1943 38.2642 67.8848 38.094C67.5753 37.9083 67.1421 37.8154 66.585 37.8154L66.8403 34.9141C67.3819 34.9141 67.8384 34.8135 68.2098 34.6124C68.5811 34.4112 68.9216 34.0785 69.231 33.6143C69.556 33.1346 69.8809 32.4924 70.2059 31.6878C70.5463 30.8832 70.9409 29.8774 71.3896 28.6704H75.9157ZM67.1421 28.6704L66.5154 33.0108C66.438 33.5988 66.3065 34.21 66.1208 34.8445C65.9351 35.4634 65.703 35.9973 65.4245 36.446C65.5328 36.8793 65.6102 37.3667 65.6566 37.9083C65.7185 38.4344 65.7107 38.9373 65.6334 39.417L64.8906 44.6858H60.527L62.7784 28.6704H67.1421ZM67.9312 34.9141L67.5366 37.8154H64.7746L65.1691 34.9141H67.9312ZM86.1498 28.6704L83.8984 44.6858H79.558L81.8094 28.6704H86.1498ZM90.7456 28.6704L90.2814 31.9895H76.7495L77.2137 28.6704H90.7456ZM99.4656 28.6704C99.806 28.6704 100.108 28.7865 100.371 29.0186C100.649 29.2507 100.812 29.5369 100.858 29.8774L103.133 44.6858H98.7693L97.6087 33.5911C97.5778 33.2971 97.5546 33.0108 97.5391 32.7323C97.5391 32.4538 97.5391 32.1752 97.5391 31.8967H96.8892C96.8273 32.1288 96.7577 32.3919 96.6803 32.6859C96.6029 32.9799 96.5023 33.2661 96.3786 33.5447L91.9917 44.6858H87.4656L93.9182 29.7149C94.042 29.3745 94.2354 29.1192 94.4985 28.9489C94.777 28.7633 95.0942 28.6704 95.4501 28.6704H99.4656ZM100.44 37.6994L100.069 40.9257H91.7132L92.1078 37.6994H100.44ZM112.929 28.4383C114.477 28.4383 115.699 28.6085 116.597 28.9489C117.494 29.2739 118.097 29.8387 118.407 30.6433C118.732 31.448 118.794 32.5543 118.593 33.9625C118.407 35.3396 118.09 36.3996 117.641 37.1423C117.192 37.8851 116.55 38.4034 115.715 38.6974C114.879 38.976 113.78 39.1152 112.419 39.1152C111.676 39.1152 110.941 39.0766 110.214 38.9992C109.502 38.9218 108.829 38.829 108.194 38.7207C107.575 38.5969 107.049 38.4731 106.616 38.3493C106.183 38.21 105.881 38.0862 105.711 37.9779L105.85 35.9818C106.856 35.9818 107.892 35.9818 108.96 35.9818C110.028 35.9818 111.065 35.9818 112.07 35.9818C112.566 35.9818 112.96 35.9276 113.254 35.8193C113.548 35.711 113.773 35.4944 113.927 35.1694C114.082 34.829 114.206 34.3184 114.299 33.6375C114.376 33.1114 114.384 32.7013 114.322 32.4073C114.26 32.1133 114.105 31.9044 113.858 31.7806C113.626 31.6569 113.277 31.595 112.813 31.595C111.297 31.595 110.005 31.6104 108.937 31.6414C107.869 31.6569 107.15 31.6801 106.778 31.711L106.709 28.6704C107.374 28.593 107.993 28.5389 108.566 28.5079C109.154 28.477 109.788 28.4615 110.469 28.4615C111.15 28.446 111.97 28.4383 112.929 28.4383ZM111.049 28.6704L108.798 44.6858H104.457L106.709 28.6704H111.049ZM126.551 34.3802C128.068 34.3802 129.259 34.5505 130.126 34.8909C130.992 35.2158 131.573 35.7729 131.867 36.5621C132.161 37.3512 132.215 38.4267 132.029 39.7883C131.843 41.1191 131.542 42.1558 131.124 42.8986C130.722 43.6413 130.134 44.1597 129.36 44.4537C128.586 44.7322 127.534 44.8715 126.203 44.8715C125.105 44.8715 124.145 44.8638 123.325 44.8483C122.52 44.8483 121.785 44.8328 121.12 44.8019C120.455 44.7709 119.782 44.7322 119.101 44.6858L119.82 41.7148C120.192 41.7303 120.88 41.7458 121.886 41.7613C122.892 41.7767 124.052 41.7845 125.368 41.7845C125.894 41.7845 126.311 41.7458 126.621 41.6684C126.93 41.591 127.163 41.3899 127.317 41.0649C127.488 40.74 127.611 40.2139 127.689 39.4866C127.782 38.8677 127.812 38.388 127.782 38.0475C127.751 37.7071 127.619 37.4673 127.387 37.328C127.17 37.1887 126.783 37.1191 126.226 37.1191H120.563L120.958 34.3802H126.551ZM125.716 28.6704L123.464 44.6858H119.101L121.352 28.6704H125.716ZM139.898 28.6704L137.646 44.6858H133.306L135.557 28.6704H139.898Z" fill="black"/>
</svg>
